<?xml version="1.0" encoding="UTF-8" standalone="no"?>
<!-- Created with Inkscape (http://www.inkscape.org/) -->

<svg
   xmlns:dc="http://purl.org/dc/elements/1.1/"
   xmlns:cc="http://creativecommons.org/ns#"
   xmlns:rdf="http://www.w3.org/1999/02/22-rdf-syntax-ns#"
   xmlns:svg="http://www.w3.org/2000/svg"
   xmlns="http://www.w3.org/2000/svg"
   xmlns:sodipodi="http://sodipodi.sourceforge.net/DTD/sodipodi-0.dtd"
   xmlns:inkscape="http://www.inkscape.org/namespaces/inkscape"
   width="164.17032mm"
   height="106.94481mm"
   viewBox="0 0 164.17032 106.94481"
   version="1.1"
   id="svg33901"
   inkscape:version="0.92.3 (2405546, 2018-03-11)"
   sodipodi:docname="carte_mentale_1.svg">
  <defs
     id="defs33895" />
  <sodipodi:namedview
     id="base"
     pagecolor="#ffffff"
     bordercolor="#666666"
     borderopacity="1.0"
     inkscape:pageopacity="0.0"
     inkscape:pageshadow="2"
     inkscape:zoom="0.35"
     inkscape:cx="-369.75687"
     inkscape:cy="-369.32814"
     inkscape:document-units="mm"
     inkscape:current-layer="layer1"
     showgrid="false"
     fit-margin-top="0"
     fit-margin-left="0"
     fit-margin-right="0"
     fit-margin-bottom="0"
     inkscape:window-width="1920"
     inkscape:window-height="1012"
     inkscape:window-x="0"
     inkscape:window-y="0"
     inkscape:window-maximized="1" />
  <metadata
     id="metadata33898">
    <rdf:RDF>
      <cc:Work
         rdf:about="">
        <dc:format>image/svg+xml</dc:format>
        <dc:type
           rdf:resource="http://purl.org/dc/dcmitype/StillImage" />
        <dc:title></dc:title>
      </cc:Work>
    </rdf:RDF>
  </metadata>
  <g
     inkscape:label="Calque 1"
     inkscape:groupmode="layer"
     id="layer1"
     transform="translate(-5.6053153,55.829548)">
    <rect
       ry="1.0893637"
       y="-50.273304"
       x="29.281843"
       height="63.500004"
       width="63.499996"
       id="rect4789-1-9"
       style="display:inline;opacity:1;fill:none;fill-opacity:1;stroke:#000000;stroke-width:0.39687499;stroke-linecap:round;stroke-linejoin:bevel;stroke-miterlimit:4;stroke-dasharray:none;stroke-dashoffset:0;stroke-opacity:1" />
    <rect
       ry="1.0893637"
       y="-50.273273"
       x="100.71936"
       height="63.500004"
       width="63.499996"
       id="rect4789-1-9-1"
       style="display:inline;opacity:1;fill:none;fill-opacity:1;stroke:#000000;stroke-width:0.39687499;stroke-linecap:round;stroke-linejoin:bevel;stroke-miterlimit:4;stroke-dasharray:none;stroke-dashoffset:0;stroke-opacity:1" />
    <rect
       style="opacity:1;fill:#f768a1;fill-opacity:1;stroke:none;stroke-width:0.39687499;stroke-linecap:round;stroke-linejoin:round;stroke-miterlimit:4;stroke-dasharray:none;stroke-dashoffset:0;stroke-opacity:1"
       id="rect933-4-3-5-1-1-1-7-6-7"
       width="5.2916665"
       height="5.2916608"
       x="121.88602"
       y="-7.9399295" />
    <rect
       style="opacity:0.78899997;fill:#f768a1;fill-opacity:1;stroke:none;stroke-width:0.39687499;stroke-linecap:round;stroke-linejoin:round;stroke-miterlimit:4;stroke-dasharray:none;stroke-dashoffset:0;stroke-opacity:1"
       id="rect933-4-3-5-1-1-1-7-6-7-8"
       width="5.2916665"
       height="5.2916608"
       x="116.59437"
       y="-7.9399447" />
    <rect
       style="opacity:0.78899997;fill:#f768a1;fill-opacity:1;stroke:none;stroke-width:0.39687499;stroke-linecap:round;stroke-linejoin:round;stroke-miterlimit:4;stroke-dasharray:none;stroke-dashoffset:0;stroke-opacity:1"
       id="rect933-4-3-5-1-1-1-7-6-7-8-6"
       width="5.2916665"
       height="5.2916608"
       x="121.88602"
       y="-13.231617" />
    <rect
       style="opacity:0.78899997;fill:#f768a1;fill-opacity:1;stroke:none;stroke-width:0.39687499;stroke-linecap:round;stroke-linejoin:round;stroke-miterlimit:4;stroke-dasharray:none;stroke-dashoffset:0;stroke-opacity:1"
       id="rect933-4-3-5-1-1-1-7-6-7-8-5"
       width="5.2916665"
       height="5.2916608"
       x="121.88604"
       y="-2.6482732" />
    <rect
       style="opacity:0.78899997;fill:#f768a1;fill-opacity:1;stroke:none;stroke-width:0.39687499;stroke-linecap:round;stroke-linejoin:round;stroke-miterlimit:4;stroke-dasharray:none;stroke-dashoffset:0;stroke-opacity:1"
       id="rect933-4-3-5-1-1-1-7-6-7-8-8"
       width="5.2916665"
       height="5.2916608"
       x="127.17769"
       y="-7.93996" />
    <rect
       style="opacity:1;fill:#ae017e;fill-opacity:1;stroke:none;stroke-width:0.39687499;stroke-linecap:round;stroke-linejoin:round;stroke-miterlimit:4;stroke-dasharray:none;stroke-dashoffset:0;stroke-opacity:1"
       id="rect933-4-3-5-1-1-1-7-6-78-1"
       width="5.2916665"
       height="5.2916608"
       x="71.615173"
       y="-34.398304" />
    <rect
       style="opacity:1;fill:#ae017e;fill-opacity:1;stroke:none;stroke-width:0.39687499;stroke-linecap:round;stroke-linejoin:round;stroke-miterlimit:4;stroke-dasharray:none;stroke-dashoffset:0;stroke-opacity:1"
       id="rect933-4-3-5-1-1-1-7-6-78-8"
       width="5.2916665"
       height="5.2916608"
       x="50.448513"
       y="-7.93996" />
    <rect
       style="opacity:1;fill:#fbb4b9;fill-opacity:1;stroke:none;stroke-width:0.39687499;stroke-linecap:round;stroke-linejoin:round;stroke-miterlimit:4;stroke-dasharray:none;stroke-dashoffset:0;stroke-opacity:1"
       id="rect933-4-3-5-1-1-1-7-6-78-8-1"
       width="5.2916665"
       height="5.2916608"
       x="39.865173"
       y="-29.106647" />
    <rect
       style="opacity:0.78899997;fill:#f768a1;fill-opacity:1;stroke:none;stroke-width:0.39687499;stroke-linecap:round;stroke-linejoin:round;stroke-miterlimit:4;stroke-dasharray:none;stroke-dashoffset:0;stroke-opacity:1"
       id="rect933-4-3-5-1-1-1-7-6-7-8-5-3"
       width="5.2916665"
       height="5.2916608"
       x="127.17767"
       y="-2.6482885" />
    <rect
       style="opacity:0.78899997;fill:#f768a1;fill-opacity:1;stroke:none;stroke-width:0.39687499;stroke-linecap:round;stroke-linejoin:round;stroke-miterlimit:4;stroke-dasharray:none;stroke-dashoffset:0;stroke-opacity:1"
       id="rect933-4-3-5-1-1-1-7-6-7-8-5-92"
       width="5.2916665"
       height="5.2916608"
       x="116.59435"
       y="-2.6482885" />
    <rect
       style="opacity:0.78899997;fill:#f768a1;fill-opacity:1;stroke:none;stroke-width:0.39687499;stroke-linecap:round;stroke-linejoin:round;stroke-miterlimit:4;stroke-dasharray:none;stroke-dashoffset:0;stroke-opacity:1"
       id="rect933-4-3-5-1-1-1-7-6-7-8-5-8"
       width="5.2916665"
       height="5.2916608"
       x="127.17767"
       y="-13.231632" />
    <rect
       style="opacity:0.78899997;fill:#f768a1;fill-opacity:1;stroke:none;stroke-width:0.39687499;stroke-linecap:round;stroke-linejoin:round;stroke-miterlimit:4;stroke-dasharray:none;stroke-dashoffset:0;stroke-opacity:1"
       id="rect933-4-3-5-1-1-1-7-6-7-8-5-2"
       width="5.2916665"
       height="5.2916608"
       x="116.59435"
       y="-13.231632" />
    <rect
       style="opacity:0.56199999;fill:#fbb4b9;fill-opacity:1;stroke:none;stroke-width:0.39687499;stroke-linecap:round;stroke-linejoin:round;stroke-miterlimit:4;stroke-dasharray:none;stroke-dashoffset:0;stroke-opacity:1"
       id="rect933-4-3-5-1-1-1-7-6-78-8-1-1"
       width="5.2916665"
       height="5.2916608"
       x="111.30267"
       y="-29.10663" />
    <rect
       style="opacity:0.57300002;fill:#feebe2;fill-opacity:1;stroke:none;stroke-width:0.39687499;stroke-linecap:round;stroke-linejoin:round;stroke-miterlimit:4;stroke-dasharray:none;stroke-dashoffset:0;stroke-opacity:1"
       id="rect933-4-3-5-1-1-1-7-6-7-8-9-42-8-0-4"
       width="5.2916665"
       height="5.2916608"
       x="106.01102"
       y="-29.10663" />
    <rect
       style="opacity:0.57300002;fill:#feebe2;fill-opacity:1;stroke:none;stroke-width:0.39687499;stroke-linecap:round;stroke-linejoin:round;stroke-miterlimit:4;stroke-dasharray:none;stroke-dashoffset:0;stroke-opacity:1"
       id="rect933-4-3-5-1-1-1-7-6-7-8-9-42-8-0-4-5"
       width="5.2916665"
       height="5.2916608"
       x="111.30267"
       y="-23.81498" />
    <rect
       style="opacity:0.57300002;fill:#feebe2;fill-opacity:1;stroke:none;stroke-width:0.39687499;stroke-linecap:round;stroke-linejoin:round;stroke-miterlimit:4;stroke-dasharray:none;stroke-dashoffset:0;stroke-opacity:1"
       id="rect933-4-3-5-1-1-1-7-6-7-8-9-42-8-0-4-1"
       width="5.2916665"
       height="5.2916608"
       x="116.59435"
       y="-29.10663" />
    <rect
       style="opacity:0.57300002;fill:#feebe2;fill-opacity:1;stroke:none;stroke-width:0.39687499;stroke-linecap:round;stroke-linejoin:round;stroke-miterlimit:4;stroke-dasharray:none;stroke-dashoffset:0;stroke-opacity:1"
       id="rect933-4-3-5-1-1-1-7-6-7-8-9-42-8-0-4-2"
       width="5.2916665"
       height="5.2916608"
       x="111.30267"
       y="-34.398304" />
    <rect
       style="opacity:1;fill:#f768a1;fill-opacity:1;stroke:none;stroke-width:0.39687499;stroke-linecap:round;stroke-linejoin:round;stroke-miterlimit:4;stroke-dasharray:none;stroke-dashoffset:0;stroke-opacity:1"
       id="rect933-4-3-5-1-1-1-7-6-7-0"
       width="5.2916665"
       height="5.2916608"
       x="143.05269"
       y="-34.398273" />
    <rect
       style="opacity:0.78899997;fill:#f768a1;fill-opacity:1;stroke:none;stroke-width:0.39687499;stroke-linecap:round;stroke-linejoin:round;stroke-miterlimit:4;stroke-dasharray:none;stroke-dashoffset:0;stroke-opacity:1"
       id="rect933-4-3-5-1-1-1-7-6-7-8-7"
       width="5.2916665"
       height="5.2916608"
       x="137.76105"
       y="-34.398289" />
    <rect
       style="opacity:0.78899997;fill:#f768a1;fill-opacity:1;stroke:none;stroke-width:0.39687499;stroke-linecap:round;stroke-linejoin:round;stroke-miterlimit:4;stroke-dasharray:none;stroke-dashoffset:0;stroke-opacity:1"
       id="rect933-4-3-5-1-1-1-7-6-7-8-6-22"
       width="5.2916665"
       height="5.2916608"
       x="143.05269"
       y="-39.68996" />
    <rect
       style="opacity:0.78899997;fill:#f768a1;fill-opacity:1;stroke:none;stroke-width:0.39687499;stroke-linecap:round;stroke-linejoin:round;stroke-miterlimit:4;stroke-dasharray:none;stroke-dashoffset:0;stroke-opacity:1"
       id="rect933-4-3-5-1-1-1-7-6-7-8-5-4"
       width="5.2916665"
       height="5.2916608"
       x="143.05269"
       y="-29.106617" />
    <rect
       style="opacity:0.78899997;fill:#f768a1;fill-opacity:1;stroke:none;stroke-width:0.39687499;stroke-linecap:round;stroke-linejoin:round;stroke-miterlimit:4;stroke-dasharray:none;stroke-dashoffset:0;stroke-opacity:1"
       id="rect933-4-3-5-1-1-1-7-6-7-8-8-4"
       width="5.2916665"
       height="5.2916608"
       x="148.34435"
       y="-34.398304" />
    <rect
       style="opacity:0.78899997;fill:#f768a1;fill-opacity:1;stroke:none;stroke-width:0.39687499;stroke-linecap:round;stroke-linejoin:round;stroke-miterlimit:4;stroke-dasharray:none;stroke-dashoffset:0;stroke-opacity:1"
       id="rect933-4-3-5-1-1-1-7-6-7-8-5-3-5"
       width="5.2916665"
       height="5.2916608"
       x="148.34435"
       y="-29.10663" />
    <rect
       style="opacity:0.78899997;fill:#f768a1;fill-opacity:1;stroke:none;stroke-width:0.39687499;stroke-linecap:round;stroke-linejoin:round;stroke-miterlimit:4;stroke-dasharray:none;stroke-dashoffset:0;stroke-opacity:1"
       id="rect933-4-3-5-1-1-1-7-6-7-8-5-92-3"
       width="5.2916665"
       height="5.2916608"
       x="137.76102"
       y="-29.10663" />
    <rect
       style="opacity:0.78899997;fill:#f768a1;fill-opacity:1;stroke:none;stroke-width:0.39687499;stroke-linecap:round;stroke-linejoin:round;stroke-miterlimit:4;stroke-dasharray:none;stroke-dashoffset:0;stroke-opacity:1"
       id="rect933-4-3-5-1-1-1-7-6-7-8-5-8-9"
       width="5.2916665"
       height="5.2916608"
       x="148.34435"
       y="-39.689976" />
    <rect
       style="opacity:0.78899997;fill:#f768a1;fill-opacity:1;stroke:none;stroke-width:0.39687499;stroke-linecap:round;stroke-linejoin:round;stroke-miterlimit:4;stroke-dasharray:none;stroke-dashoffset:0;stroke-opacity:1"
       id="rect933-4-3-5-1-1-1-7-6-7-8-5-2-5"
       width="5.2916665"
       height="5.2916608"
       x="137.76102"
       y="-39.689976" />
    <rect
       style="opacity:0.57300002;fill:#feebe2;fill-opacity:1;stroke:none;stroke-width:0.39687499;stroke-linecap:round;stroke-linejoin:round;stroke-miterlimit:4;stroke-dasharray:none;stroke-dashoffset:0;stroke-opacity:1"
       id="rect933-4-3-5-1-1-1-7-6-7-8-9-42-8-0-4-5-9"
       width="5.2916665"
       height="5.2916608"
       x="116.59435"
       y="-23.814957" />
    <rect
       style="opacity:0.57300002;fill:#feebe2;fill-opacity:1;stroke:none;stroke-width:0.39687499;stroke-linecap:round;stroke-linejoin:round;stroke-miterlimit:4;stroke-dasharray:none;stroke-dashoffset:0;stroke-opacity:1"
       id="rect933-4-3-5-1-1-1-7-6-7-8-9-42-8-0-4-5-7"
       width="5.2916665"
       height="5.2916608"
       x="106.01101"
       y="-23.814957" />
    <rect
       style="opacity:0.57300002;fill:#feebe2;fill-opacity:1;stroke:none;stroke-width:0.39687499;stroke-linecap:round;stroke-linejoin:round;stroke-miterlimit:4;stroke-dasharray:none;stroke-dashoffset:0;stroke-opacity:1"
       id="rect933-4-3-5-1-1-1-7-6-7-8-9-42-8-0-4-5-2"
       width="5.2916665"
       height="5.2916608"
       x="116.59435"
       y="-34.398289" />
    <rect
       style="opacity:0.57300002;fill:#feebe2;fill-opacity:1;stroke:none;stroke-width:0.39687499;stroke-linecap:round;stroke-linejoin:round;stroke-miterlimit:4;stroke-dasharray:none;stroke-dashoffset:0;stroke-opacity:1"
       id="rect933-4-3-5-1-1-1-7-6-7-8-9-42-8-0-4-5-1"
       width="5.2916665"
       height="5.2916608"
       x="106.01101"
       y="-34.398289" />
    <g
       style="display:inline;opacity:1"
       transform="matrix(2.9420077,0,0,2.9420077,-76.731668,60.638082)"
       id="g11673-3-1">
      <g
         id="g6596-7-0-7"
         transform="translate(44.21489,-61.707453)">
        <g
           id="g10708-5-4-65-8-7-6"
           transform="matrix(0.33898528,0,0,0.33898528,-40.779288,45.600927)">
          <path
             id="path52-8-8-6-5-8-9"
             d="m 87.3125,32.416667 v 5.548645 h -2.531755 l -1.076386,-5.548645 q -0.136439,-0.818646 0.28805,-1.425059 0.500284,-0.651895 1.318943,-0.636734 0.848968,-0.01512 1.440219,0.636734 0.57609,0.606413 0.560929,1.425059 m -6.685663,-1.425059 q 0.424489,0.606413 0.28805,1.425059 l -1.076374,5.548645 h -2.531755 v -5.548645 q -0.01513,-0.818646 0.560928,-1.425059 0.59124,-0.651895 1.44022,-0.636734 0.818647,-0.01512 1.318931,0.636734"
             style="fill:#555753;fill-opacity:1;stroke:none;stroke-width:0.3032043"
             inkscape:connector-curvature="0" />
          <path
             id="path54-22-5-3-3-4-5"
             d="m 82.006422,12.647738 v -0.0455 l 0.303201,-0.01513 0.303201,0.01513 v 0.0455 q 2.122437,0.272889 3.699096,1.849548 1.910193,1.910193 1.910193,4.60871 v 12.249458 q 0,1.652464 -1.910193,2.819805 -1.576659,0.955085 -3.699096,1.121847 v 0.03036 h -0.303201 -0.303201 v -0.03036 q -2.107276,-0.166762 -3.699096,-1.121858 -1.910181,-1.16733 -1.910181,-2.819794 V 19.105996 q 0,-2.698517 1.910181,-4.60871 1.59182,-1.591819 3.699096,-1.849548"
             style="fill:#babdb6;fill-opacity:1;stroke:none;stroke-width:0.3032043"
             inkscape:connector-curvature="0" />
          <path
             id="path56-0-0-9-3-4-2"
             d="m 87.646023,29.14206 0.09099,0.03037 q 3.592969,1.409897 3.502013,5.21511 -0.01513,0.318373 -0.227406,0.530607 -0.227406,0.212244 -0.545767,0.212244 -0.318362,0 -0.530607,-0.227393 -0.212245,-0.227407 -0.212245,-0.545769 0.04549,-2.486283 -2.076954,-2.425638 v -2.78949 m -10.672788,0 v 2.789484 q -2.122427,-0.06063 -2.076955,2.425638 0,0.318362 -0.212233,0.545768 -0.212245,0.227394 -0.530618,0.227394 -0.318362,0 -0.545768,-0.212245 -0.212245,-0.212244 -0.227407,-0.530606 -0.09099,-3.805213 3.502013,-5.21511 l 0.09099,-0.03037"
             style="fill:#555753;fill-opacity:1;stroke:none;stroke-width:0.3032043"
             inkscape:connector-curvature="0" />
          <path
             id="path58-6-1-4-83-4-3"
             d="m 83.12828,21.728717 q 0,0.318362 -0.227406,0.530607 -0.212245,0.227395 -0.515445,0.227395 -0.333523,0 -0.560929,-0.227395 -0.212246,-0.212245 -0.212246,-0.530607 0,-0.318372 0.212246,-0.530618 0.227406,-0.242555 0.560929,-0.242555 0.3032,0 0.515445,0.242555 0.227406,0.212246 0.227406,0.530618 m 1.531175,0.530607 q 0.288051,0 0.515446,0.227395 0.242567,0.227406 0.242567,0.530607 0,0.333533 -0.242567,0.530618 -0.227395,0.242555 -0.515446,0.242555 -0.333522,0 -0.560928,-0.242555 -0.227395,-0.197085 -0.227395,-0.530618 0,-0.303201 0.227395,-0.530607 0.227406,-0.227395 0.560928,-0.227395 m -4.578387,0 q 0.333535,0 0.530607,0.227395 0.242568,0.227406 0.242568,0.530607 0,0.333533 -0.242568,0.530618 -0.197072,0.242555 -0.530607,0.242555 -0.3032,0 -0.545768,-0.242555 -0.212232,-0.197085 -0.212232,-0.530618 0,-0.303201 0.212232,-0.530607 0.242568,-0.227395 0.545768,-0.227395 m 1.000581,3.714247 0.07575,-0.227406 q 0.106114,-0.09099 0.242568,-0.09099 h 1.895032 q 0.136439,0 0.227394,0.09099 l 0.106114,0.227406 -0.106114,0.227406 q -0.09099,0.106114 -0.227394,0.106114 h -1.895036 q -0.136439,0 -0.242567,-0.106114 l -0.07575,-0.227406"
             style="fill:#000000;fill-opacity:1;stroke:none;stroke-width:0.3032043"
             inkscape:connector-curvature="0" />
          <path
             id="path62-4-6-9-1-7-9-5"
             d="m 82.916036,16.86228 q 0,-1.182491 0.848967,-2.01631 0.833819,-0.848968 2.01631,-0.848968 1.182503,0 2.01631,0.848968 0.833806,0.833819 0.833806,2.01631 0,1.182502 -0.833806,2.01631 -0.833807,0.833819 -2.01631,0.833819 -1.182491,0 -2.01631,-0.833819 -0.848967,-0.833808 -0.848967,-2.01631"
             style="fill:#ffffff;fill-opacity:0.30196078;stroke:none;stroke-width:0.3032043"
             inkscape:connector-curvature="0" />
          <path
             id="path64-0-1-7-2-9-8-2"
             d="m 76.412306,14.103119 q -2.471122,2.440799 -2.471122,5.897329 0,3.47169 2.471122,5.927639 2.440788,2.4408 5.897317,2.4408 3.456529,0 5.927651,-2.4408 2.440788,-2.455949 2.440788,-5.927639 0,-3.45653 -2.440788,-5.897329 -2.471122,-2.455949 -5.927651,-2.455949 -3.456529,0 -5.897317,2.455949 M 75.33592,13.026745 q 2.88045,-2.895601 6.973703,-2.895601 4.093264,0 7.004025,2.895601 2.880439,2.88045 2.880439,6.973703 0,4.108413 -2.880439,7.004025 -2.910761,2.880439 -7.004025,2.880439 -4.093253,0 -6.973703,-2.880439 -2.910761,-2.895612 -2.910761,-7.004025 0,-4.093253 2.910761,-6.973703"
             style="fill:#ffffff;stroke:none;stroke-width:0.3032043"
             inkscape:connector-curvature="0" />
          <path
             id="path66-0-0-0-9-3-5-6"
             d="m 77.397713,29.960706 q 0.257729,-0.257716 0.621574,-0.257716 0.363845,0 0.621562,0.257716 0.257728,0.257729 0.257728,0.621574 0,0.363845 -0.257728,0.621573 -0.257717,0.257718 -0.621562,0.257718 -0.363845,0 -0.621574,-0.257718 -0.257717,-0.257728 -0.257717,-0.621573 0,-0.363845 0.257717,-0.621574 m 3.320091,3.835536 q -0.348685,-0.348684 -0.348685,-0.848968 0,-0.500284 0.348685,-0.848969 0.348683,-0.348684 0.848967,-0.348684 0.500285,0 0.848981,0.348684 0.348683,0.348685 0.348683,0.848969 0,0.500284 -0.348683,0.848968 -0.348696,0.348696 -0.848981,0.348696 -0.500284,0 -0.848967,-0.348696 m -1.394736,-0.742841 q -0.181923,0.181923 -0.439652,0.181923 -0.257728,0 -0.439651,-0.181923 -0.181922,-0.181922 -0.181922,-0.439651 0,-0.257727 0.181922,-0.43965 0.181923,-0.181922 0.439651,-0.181922 0.257729,0 0.439652,0.181922 0.181922,0.181923 0.181922,0.43965 0,0.257729 -0.181922,0.439651"
             style="fill:#ffffff;fill-opacity:0.30196078;stroke:none;stroke-width:0.3032043"
             inkscape:connector-curvature="0" />
        </g>
        <g
           id="g5988-7-1-4"
           transform="matrix(0.03209982,0,0,0.04033776,-17.60093,55.403318)"
           style="fill:#000000;fill-opacity:1">
          <g
             id="g5969-8-7-9"
             transform="translate(99.42151,-2.8271519)"
             style="fill:#000000;fill-opacity:1">
            <path
               id="path5965-7-2-0"
               d="m 42.433,21.227 c 0,-3.714 14.857,-3.714 14.857,0 0,14.502 7.669875,32.688938 7.669875,32.688938 L 50.417992,64.742634 34.965875,53.433938 c 0,0 7.467125,-18.032938 7.467125,-32.206938 z"
               inkscape:connector-curvature="0"
               sodipodi:nodetypes="sscccs"
               style="fill:#000000;fill-opacity:1" />
            <path
               id="path5967-4-7-4"
               d="m 60.311,2.718 c 0,-3.624 -21.196,-3.624 -21.196,0 0,2.492 1.684,14.595 3.377,12.907 2.965,-2.967 11.537,-2.967 14.502,0 1.69,1.687 3.317,-9.674 3.317,-12.907 z"
               inkscape:connector-curvature="0"
               style="fill:#000000;fill-opacity:1" />
          </g>
        </g>
      </g>
      <path
         inkscape:connector-curvature="0"
         d="m 33.251292,-11.763524 c -0.0078,-0.03085 -0.05181,-0.03558 -0.06812,-0.0079 -0.255495,0.433401 -0.50815,0.489074 -0.658525,0.472027 -0.07941,-0.009 -0.135018,-0.07908 -0.126969,-0.154501 l 0.255495,-2.38117 c 0.01116,-0.104038 -0.06778,-0.197388 -0.177297,-0.209497 -0.372115,-0.04126 -0.73476,-0.09849 -1.111136,-0.09098 -0.366975,0.0072 -0.739901,0.05108 -1.099028,0.09091 -0.109517,0.01218 -0.188527,0.105459 -0.177365,0.209497 l 0.255495,2.38117 c 0.0081,0.07542 -0.04755,0.145505 -0.126969,0.154501 -0.150308,0.01705 -0.403029,-0.03862 -0.658524,-0.472027 -0.01631,-0.02767 -0.06027,-0.02286 -0.06812,0.0079 -0.02435,0.09646 -0.03802,0.271121 0.09152,0.466751 0.366433,0.55293 1.149965,0.693902 1.789074,0.704117 0.639109,-0.01015 1.422641,-0.151187 1.788871,-0.704049 0.129607,-0.19563 0.115944,-0.370356 0.09159,-0.466751 z"
         id="path6-19-9-4"
         style="stroke-width:0.06764496" />
      <path
         inkscape:connector-curvature="0"
         d="m 31.70884,-7.7375706 c -0.228394,-0.052558 -0.384024,0.092968 -0.384024,0.092968 0,0 -0.15563,-0.145528 -0.384024,-0.092968 -0.309445,0.071189 -0.411015,0.5632508 -0.776098,0.4446345 0,0 0.07884,0.3071562 0.529474,0.3112596 0.450632,0.00413 0.630648,-0.3516666 0.630648,-0.3516666 0,0 0.179858,0.3556922 0.630569,0.3516666 0.450712,-0.00405 0.529474,-0.3112596 0.529474,-0.3112596 -0.365083,0.1186957 -0.466574,-0.3733694 -0.776019,-0.4446345 z"
         id="path2-0-6-2"
         style="stroke-width:0.07891984" />
    </g>
    <g
       style="display:inline;opacity:1"
       transform="matrix(0.121228,0,0,0.121228,-70.259936,3.4492264)"
       id="g11770-9-4">
      <g
         transform="matrix(0.93750007,0,0,0.93750007,69.021083,306.85482)"
         id="g11454-2-5">
        <rect
           style="opacity:1;fill:none;fill-opacity:0.42352941;stroke:#000000;stroke-width:4.6560564;stroke-linecap:round;stroke-linejoin:round;stroke-miterlimit:4;stroke-dasharray:none;stroke-dashoffset:0;stroke-opacity:1"
           id="rect32830"
           width="1280.4155"
           height="651.8479"
           x="755.67017"
           y="-846.5686"
           ry="46.560486" />
      </g>
    </g>
    <g
       id="g32867"
       transform="matrix(0.81561826,0,0,0.81561826,-43.516483,-136.34285)">
      <circle
         r="2.6458333"
         cy="195.04092"
         cx="92.131699"
         id="path32832"
         style="opacity:1;fill:none;fill-opacity:0.42352941;stroke:#000000;stroke-width:0.5291667;stroke-linecap:round;stroke-linejoin:round;stroke-miterlimit:4;stroke-dasharray:none;stroke-dashoffset:0;stroke-opacity:1" />
      <circle
         r="1.5910159"
         cy="199.86012"
         cx="88.635414"
         id="path32832-9"
         style="opacity:1;fill:none;fill-opacity:0.42352941;stroke:#000000;stroke-width:0.5291667;stroke-linecap:round;stroke-linejoin:round;stroke-miterlimit:4;stroke-dasharray:none;stroke-dashoffset:0;stroke-opacity:1" />
      <circle
         r="0.86183167"
         cy="202.60045"
         cx="85.04464"
         id="path32832-9-4"
         style="opacity:1;fill:none;fill-opacity:0.42352941;stroke:#000000;stroke-width:0.5291667;stroke-linecap:round;stroke-linejoin:round;stroke-miterlimit:4;stroke-dasharray:none;stroke-dashoffset:0;stroke-opacity:1" />
    </g>
    <g
       transform="matrix(0.10523047,0,0,0.10523047,30.845406,-48.439163)"
       id="g41932-7-0">
      <path
         style="fill:#000000"
         inkscape:connector-curvature="0"
         d="M 48,24 C 66.752,24 82,39.252 82,58 82,76.748 66.752,92 48,92 29.252,92 14,76.748 14,58 14,39.252 29.252,24 48,24 Z m 0,-4 C 27.012,20 10,37.012 10,58 10,78.988 27.012,96 48,96 68.988,96 86,78.988 86,58 86,37.012 68.988,20 48,20 Z"
         id="path41900-0-8" />
      <path
         style="fill:#000000"
         inkscape:connector-curvature="0"
         d="M 58,16 H 38 c -1.104,0 -2,-0.9 -2,-2 V 2 c 0,-1.1 0.896,-2 2,-2 h 20 c 1.1,0 2,0.9 2,2 v 12 c 0,1.1 -0.9,2 -2,2 z M 40,12 H 56 V 4 H 40 Z"
         id="path41902-0-4" />
      <path
         style="fill:#000000"
         inkscape:connector-curvature="0"
         d="m 40,16 h 4 v 8 h -4 z"
         id="path41904-6-7" />
      <path
         style="fill:#000000"
         inkscape:connector-curvature="0"
         d="m 52,16 h 4 v 8 h -4 z"
         id="path41906-1-4" />
      <path
         style="fill:#000000"
         inkscape:connector-curvature="0"
         d="M 48,86 C 32.56,86 20,73.436 20,58 20,42.564 32.56,30 48,30 63.436,30 76,42.564 76,58 76,73.436 63.436,86 48,86 Z M 48,34 C 34.764,34 24,44.764 24,58 24,71.236 34.764,82 48,82 61.236,82 72,71.236 72,58 72,44.764 61.236,34 48,34 Z"
         id="path41908-0-3" />
      <path
         style="fill:#000000"
         inkscape:connector-curvature="0"
         d="m 48,58 c -0.512,0 -1.024,-0.196 -1.416,-0.584 -0.78,-0.772 -0.78,-2.048 0,-2.828 l 12,-12 c 0.776,-0.772 2.048,-0.772 2.828,0 0.776,0.78 0.776,2.056 0,2.828 l -12,12 C 49.024,57.804 48.512,58 48,58 Z"
         id="path41910-2-5" />
    </g>
    <text
       xml:space="preserve"
       style="font-style:normal;font-variant:normal;font-weight:normal;font-stretch:normal;font-size:5.64444447px;line-height:1.25;font-family:'DejaVu Sans Mono';-inkscape-font-specification:'DejaVu Sans Mono';letter-spacing:0px;word-spacing:0px;fill:#000000;fill-opacity:1;stroke:none;stroke-width:0.26458332"
       x="41.257977"
       y="-40.532734"
       id="text32961"><tspan
         sodipodi:role="line"
         id="tspan32959"
         x="41.257977"
         y="-40.532734"
         style="stroke-width:0.26458332">t</tspan></text>
    <g
       transform="matrix(0.10523047,0,0,0.10523047,102.28291,-48.439163)"
       id="g41932-7-0-9">
      <path
         style="fill:#000000"
         inkscape:connector-curvature="0"
         d="M 48,24 C 66.752,24 82,39.252 82,58 82,76.748 66.752,92 48,92 29.252,92 14,76.748 14,58 14,39.252 29.252,24 48,24 Z m 0,-4 C 27.012,20 10,37.012 10,58 10,78.988 27.012,96 48,96 68.988,96 86,78.988 86,58 86,37.012 68.988,20 48,20 Z"
         id="path41900-0-8-6" />
      <path
         style="fill:#000000"
         inkscape:connector-curvature="0"
         d="M 58,16 H 38 c -1.104,0 -2,-0.9 -2,-2 V 2 c 0,-1.1 0.896,-2 2,-2 h 20 c 1.1,0 2,0.9 2,2 v 12 c 0,1.1 -0.9,2 -2,2 z M 40,12 H 56 V 4 H 40 Z"
         id="path41902-0-4-0" />
      <path
         style="fill:#000000"
         inkscape:connector-curvature="0"
         d="m 40,16 h 4 v 8 h -4 z"
         id="path41904-6-7-1" />
      <path
         style="fill:#000000"
         inkscape:connector-curvature="0"
         d="m 52,16 h 4 v 8 h -4 z"
         id="path41906-1-4-5" />
      <path
         style="fill:#000000"
         inkscape:connector-curvature="0"
         d="M 48,86 C 32.56,86 20,73.436 20,58 20,42.564 32.56,30 48,30 63.436,30 76,42.564 76,58 76,73.436 63.436,86 48,86 Z M 48,34 C 34.764,34 24,44.764 24,58 24,71.236 34.764,82 48,82 61.236,82 72,71.236 72,58 72,44.764 61.236,34 48,34 Z"
         id="path41908-0-3-6" />
      <path
         style="fill:#000000"
         inkscape:connector-curvature="0"
         d="m 48,58 c -0.512,0 -1.024,-0.196 -1.416,-0.584 -0.78,-0.772 -0.78,-2.048 0,-2.828 l 12,-12 c 0.776,-0.772 2.048,-0.772 2.828,0 0.776,0.78 0.776,2.056 0,2.828 l -12,12 C 49.024,57.804 48.512,58 48,58 Z"
         id="path41910-2-5-2" />
    </g>
    <text
       xml:space="preserve"
       style="font-style:normal;font-variant:normal;font-weight:normal;font-stretch:normal;font-size:5.64444447px;line-height:1.25;font-family:'DejaVu Sans Mono';-inkscape-font-specification:'DejaVu Sans Mono';letter-spacing:0px;word-spacing:0px;fill:#000000;fill-opacity:1;stroke:none;stroke-width:0.26458332"
       x="112.69549"
       y="-40.532719"
       id="text32961-7"><tspan
         sodipodi:role="line"
         id="tspan32959-0"
         x="112.69549"
         y="-40.532719"
         style="stroke-width:0.26458332">t+1</tspan></text>
  </g>
</svg>
